<svg xmlns="http://www.w3.org/2000/svg">
  <!-- Password visibilty eyes -->
  <symbol id="eye-fill" viewBox="0 0 16 16">
    <path d="M10.5 8a2.5 2.5 0 1 1-5 0 2.5 2.5 0 0 1 5 0z"/>
    <path d="M0 8s3-5.5 8-5.5S16 8 16 8s-3 5.5-8 5.5S0 8 0 8zm8 2.5a2.5 2.5 0 1 0 0-7 2.5 2.5 0 0 0 0 7z"/>
  </symbol>
  <symbol id="eye-slash-fill" viewBox="0 0 16 16">
    <path d="m10.79 12.912-1.614-1.615a2.5 2.5 0 0 1-4.474-4.474l-2.06-2.06C.938 6.278 0 8 0 8s3 5.5 8 5.5a7.029 7.029 0 0 0 2.79-.588zM5.21 3.088A7.028 7.028 0 0 1 8 2.5c5 0 8 5.5 8 5.5s-.939 1.721-2.641 3.238l-2.062-2.062a2.5 2.5 0 0 0-4.474-4.474L5.21 3.089z"/>
    <path d="M5.525 7.646a2.5 2.5 0 0 0 2.829 2.829l-2.83-2.829zm4.95.708-2.829-2.83a2.5 2.5 0 0 1 2.829 2.829zm3.171 6-12-12 .708-.708 12 12-.708.708z"/>
  </symbol>

  <!-- User Controls -->
  <symbol id="user"  viewBox="0 0 16 16">
    <path d="M12 0H4a2 2 0 0 0-2 2v12a2 2 0 0 0 2 2h8a2 2 0 0 0 2-2V2a2 2 0 0 0-2-2zm-1 7a3 3 0 1 1-6 0 3 3 0 0 1 6 0zm-3 4c2.623 0 4.146.826 5 1.755V14a1 1 0 0 1-1 1H4a1 1 0 0 1-1-1v-1.245C3.854 11.825 5.377 11 8 11z"/>
  </symbol>

  <symbol id="chevron" viewBox="0 0 16 16">
    <path fill-rule="evenodd" d="M7.646 4.646a.5.5 0 0 1 .708 0l6 6a.5.5 0 0 1-.708.708L8 5.707l-5.646 5.647a.5.5 0 0 1-.708-.708l6-6z"/>
  </symbol>

  <symbol id="grip-horizontal" viewBox="0 4 15 8">
    <path d="M2 8a1 1 0 1 1 0 2 1 1 0 0 1 0-2zm0-3a1 1 0 1 1 0 2 1 1 0 0 1 0-2zm3 3a1 1 0 1 1 0 2 1 1 0 0 1 0-2zm0-3a1 1 0 1 1 0 2 1 1 0 0 1 0-2zm3 3a1 1 0 1 1 0 2 1 1 0 0 1 0-2zm0-3a1 1 0 1 1 0 2 1 1 0 0 1 0-2zm3 3a1 1 0 1 1 0 2 1 1 0 0 1 0-2zm0-3a1 1 0 1 1 0 2 1 1 0 0 1 0-2zm3 3a1 1 0 1 1 0 2 1 1 0 0 1 0-2zm0-3a1 1 0 1 1 0 2 1 1 0 0 1 0-2z"/>
  </symbol>

  <symbol id="check-square-fill" viewBox="0 0 16 16">
    <path d="M2 0a2 2 0 0 0-2 2v12a2 2 0 0 0 2 2h12a2 2 0 0 0 2-2V2a2 2 0 0 0-2-2H2zm10.03 4.97a.75.75 0 0 1 .011 1.05l-3.992 4.99a.75.75 0 0 1-1.08.02L4.324 8.384a.75.75 0 1 1 1.06-1.06l2.094 2.093 3.473-4.425a.75.75 0 0 1 1.08-.022z"/>
  </symbol>
  <symbol id="x-square-fill" viewBox="0 0 16 16">
    <path d="M2 0a2 2 0 0 0-2 2v12a2 2 0 0 0 2 2h12a2 2 0 0 0 2-2V2a2 2 0 0 0-2-2H2zm3.354 4.646L8 7.293l2.646-2.647a.5.5 0 0 1 .708.708L8.707 8l2.647 2.646a.5.5 0 0 1-.708.708L8 8.707l-2.646 2.647a.5.5 0 0 1-.708-.708L7.293 8 4.646 5.354a.5.5 0 1 1 .708-.708z"/>
  </symbol>

  <symbol id="menu" viewBox="0 0 30 20" stroke-width="3" stroke-linecap="round">
    <line x1="2" y1="2" x2="28" y2="2" />
    <line x1="2" y1="10" x2="28" y2="10" />
    <line x1="2" y1="18" x2="28" y2="18" />
  </symbol>

  <symbol id="grip-small" viewBox="0 0 60 20" stroke="none">
    <circle cx="8" cy="4" r="2.5" />
    <circle cx="8" cy="16" r="2.5" />
    <circle cx="20" cy="4" r="2.5" />
    <circle cx="20" cy="16" r="2.5" />
    <circle cx="32" cy="4" r="2.5" />
    <circle cx="32" cy="16" r="2.5" />
    <circle cx="44" cy="4" r="2.5" />
    <circle cx="44" cy="16" r="2.5" />
    <circle cx="56" cy="4" r="2.5" />
    <circle cx="56" cy="16" r="2.5" />
  </symbol>

  <symbol id="grip-large" viewBox="0 0 80 20" stroke="none">
    <circle cx="4" cy="4" r="2.5" />
    <circle cx="4" cy="16" r="2.5" />
    <circle cx="16" cy="4" r="2.5" />
    <circle cx="16" cy="16" r="2.5" />
    <circle cx="28" cy="4" r="2.5" />
    <circle cx="28" cy="16" r="2.5" />
    <circle cx="40" cy="4" r="2.5" />
    <circle cx="40" cy="16" r="2.5" />
    <circle cx="52" cy="4" r="2.5" />
    <circle cx="52" cy="16" r="2.5" />
    <circle cx="64" cy="4" r="2.5" />
    <circle cx="64" cy="16" r="2.5" />
    <circle cx="76" cy="4" r="2.5" />
    <circle cx="76" cy="16" r="2.5" />
  </symbol>

  <symbol id="grip-large" viewBox="0 0 100 40" >
    <circle cx="10" cy="14" r="3" />
    <circle cx="10" cy="26" r="3" />
    <circle cx="20" cy="14" r="3" />
    <circle cx="20" cy="26" r="3" />
    <circle cx="30" cy="14" r="3" />
    <circle cx="30" cy="26" r="3" />
    <circle cx="40" cy="14" r="3" />
    <circle cx="40" cy="26" r="3" />
    <circle cx="50" cy="14" r="3" />
    <circle cx="50" cy="26" r="3" />
    <circle cx="60" cy="14" r="3" />
    <circle cx="60" cy="26" r="3" />
    <circle cx="70" cy="14" r="3" />
    <circle cx="70" cy="26" r="3" />
    <circle cx="80" cy="14" r="3" />
    <circle cx="80" cy="26" r="3" />
    <circle cx="80" cy="14" r="3" />
    <circle cx="80" cy="26" r="3" />
  </symbol>



  <symbol id="logo" viewBox="0 0 99 99" stroke="white" stroke-width="5" fill="none">
    <path d="M 30,5 L 25,35 C -10, 30 -5,120 50,90 C 105,120 105,30 75,35 L 70,5 L 60,15 Q 50,8 40,15 L 30,5 z" stroke-linejoin="round"/>
    <ellipse cx="35" cy="40" rx="2" ry="5" fill="white" />
    <ellipse cx="65" cy="40" rx="2" ry="5" fill="white" />
    <ellipse cx="50" cy="60" rx="3" ry="1" fill="white" />
    <path d="M 40 70 Q 50,80 50,60 Q 50,80 60,70" />
    <path d="M 40 70 Q 50,80 50,60 Q 50,80 60,70" />
    <path d="M 15 50 L 35,55" />
    <path d="M 15 70 L 35,65" />
    <path d="M 85 50 L 65,55" />
    <path d="M 85 70 L 65,65" />
  </symbol>

  <symbol id="nut" viewBox="0 1 16 16">
    <path d="M4.58 1a1 1 0 0 0-.868.504l-3.428 6a1 1 0 0 0 0 .992l3.428 6A1 1 0 0 0 4.58 15h6.84a1 1 0 0 0 .868-.504l3.429-6a1 1 0 0 0 0-.992l-3.429-6A1 1 0 0 0 11.42 1H4.58zm5.018 9.696a3 3 0 1 1-3-5.196 3 3 0 0 1 3 5.196z"/>
  </symbol>
</svg>